
<svg version="1.1" id="svg" xmlns="http://www.w3.org/2000/svg" xmlns:xlink="http://www.w3.org/1999/xlink" x="0px" y="0px"
	 viewBox="0 0 3710 3710" style="enable-background:new 0 0 3710 3710;" xml:space="preserve">
<style type="text/css">
	.st0{fill:url(#r-border_00000095302165461205657740000016219819920351759240_);}
	.st1{fill:url(#orange_00000163769941344921216070000014628653893794380701_);}
</style>
<linearGradient id="r-border_00000089543765123254441670000002751732094058697148_" gradientUnits="userSpaceOnUse" x1="-424.6623" y1="-3122.074" x2="2180.0906" y2="2105.0388">
	<stop  offset="0" style="stop-color:#FFC444"/>
	<stop  offset="0.9964" style="stop-color:#F36F56"/>
</linearGradient>
<path id="r-border" style="fill:url(#r-border_00000089543765123254441670000002751732094058697148_);" d="M3682.51,1577.22
	c0-903.27-833.2-1608.42-1825.59-1576.15C1291.77,19.44,800.07,274.22,493.04,650.32c-0.04-0.11-0.08-0.22-0.11-0.33
	c-1.9,2.34-3.68,4.77-5.58,7.12c-5.31,6.58-10.43,13.28-15.63,19.94c-9.48,12.13-18.82,24.35-27.93,36.73
	c-5.38,7.31-10.67,14.67-15.92,22.07c-8.76,12.35-17.29,24.83-25.68,37.4c-4.79,7.2-9.64,14.36-14.31,21.63
	c-9.34,14.53-18.34,29.25-27.17,44.06c-3.21,5.36-6.57,10.63-9.7,16.03c-11.65,20.08-22.83,40.41-33.53,60.97
	c-2.84,5.45-5.43,11.03-8.21,16.51c-7.79,15.43-15.4,30.94-22.65,46.62c-3.56,7.69-6.92,15.46-10.34,23.21
	c-6.13,13.88-12.07,27.84-17.77,41.91c-3.31,8.17-6.56,16.35-9.72,24.58c-5.54,14.44-10.8,28.99-15.88,43.6
	c-2.66,7.65-5.41,15.25-7.95,22.95c-6.06,18.4-11.69,36.95-17.01,55.62c-1.11,3.9-2.39,7.73-3.47,11.64
	c-6.21,22.52-11.83,45.25-16.95,68.14c-1.51,6.74-2.75,13.56-4.16,20.32c-3.43,16.42-6.67,32.88-9.53,49.47
	c-1.44,8.45-2.73,16.94-4.03,25.43c-2.36,15.35-4.48,30.76-6.34,46.24c-1.05,8.69-2.07,17.37-2.95,26.1
	c-1.66,16.33-2.94,32.75-4.04,49.22c-0.51,7.66-1.16,15.29-1.56,22.98c-1.22,24.06-1.97,48.23-1.97,72.57
	c0,579.64,351.05,1090.94,877.35,1364.69c48.4,25.17,98.31,48.37,149.59,69.43c25.68,10.55,51.7,20.57,78.07,30.04
	c185.26,66.56,386.9,106,598.98,112.2l0,0l0,0c0.01,0,0.01,0,0.01,0c29.22,0.85,58.28,0.99,87.22,0.57
	c9.77-0.14,19.42-0.68,29.16-0.97c19.13-0.56,38.27-1.12,57.27-2.23c11.61-0.67,23.1-1.72,34.66-2.6
	c16.97-1.28,33.93-2.57,50.77-4.28c12.34-1.26,24.57-2.82,36.83-4.3c15.92-1.93,31.83-3.9,47.63-6.21c12.61-1.84,25.13-3.92,37.66-6
	c15.29-2.54,30.53-5.18,45.68-8.08c12.68-2.42,25.3-4.99,37.88-7.66c14.83-3.14,29.59-6.45,44.28-9.92
	c12.6-2.98,25.17-6.04,37.65-9.26c14.53-3.75,28.94-7.72,43.32-11.79c12.37-3.5,24.74-7,36.99-10.74c4.52-1.38,9.16-2.56,13.66-3.97
	c-0.1-0.11-0.2-0.22-0.3-0.33C3183.89,2856.62,3682.51,2273.6,3682.51,1577.22z"/>
<linearGradient id="orange_00000165923445287746629770000014282016554774452657_" gradientUnits="userSpaceOnUse" x1="1107.1138" y1="311.2579" x2="3637.1267" y2="5003.6821">
	<stop  offset="0" style="stop-color:#FFC444"/>
	<stop  offset="0.9964" style="stop-color:#F36F56"/>
</linearGradient>
<path id="orange" style="fill:url(#orange_00000165923445287746629770000014282016554774452657_);" d="M3546.14,1577.45
	c0,900.95-828.95,1607.1-1816.37,1578.25C779.14,3127.93,34.1,2424.33,34.1,1583.25C34.1,742.17,779.14,36.11,1729.77,5.2
	C2717.19-26.91,3546.14,676.5,3546.14,1577.45z"/>
</svg>
